<?xml version="1.0" encoding="UTF-8"?>
<!DOCTYPE svg PUBLIC "-//W3C//DTD SVG 1.1//EN" "http://www.w3.org/Graphics/SVG/1.1/DTD/svg11.dtd">
<!-- Creator: CorelDRAW -->
<svg xmlns="http://www.w3.org/2000/svg" xml:space="preserve" width="8.75691in" height="1.41247in" version="1.1" style="shape-rendering:geometricPrecision; text-rendering:geometricPrecision; image-rendering:optimizeQuality; fill-rule:evenodd; clip-rule:evenodd"
viewBox="0 0 10002.82 1613.43"
 xmlns:xlink="http://www.w3.org/1999/xlink"
 xmlns:xodm="http://www.corel.com/coreldraw/odm/2003">
 <defs>
  <style type="text/css">
   <![CDATA[
    .fil0 {fill:#201E1E}
   ]]>
  </style>
 </defs>
 <g id="Layer_x0020_1">
  <metadata id="CorelCorpID_0Corel-Layer"/>
  <g id="_2389303726224">
   <path class="fil0" d="M4154.61 456.93c-468.98,96.62 -332.04,781.65 126.09,702.17 463.84,-80.46 346.27,-799.48 -126.09,-702.17zm18.34 110.75c-325.57,73.67 -225.05,548.91 111.18,473.81 105.03,-23.45 203.22,-151.43 171.31,-293.43 -24.21,-107.79 -138.4,-212.97 -282.5,-180.37z"/>
   <path class="fil0" d="M7313.63 455.67c-484.61,90.57 -321.01,776.64 118.82,704.58 470.44,-77.07 346.38,-791.54 -118.82,-704.58zm-14.03 117.89c-279.58,88.85 -180.11,553.45 143.23,466.58 108.84,-29.26 201.65,-154.5 165.6,-296.7 -28.8,-113.63 -156.44,-218.31 -308.83,-169.88z"/>
   <path class="fil0" d="M9299.49 1158.8l101.87 -1.87 2.03 -479.44c98.35,88 154.03,228.45 252.37,316.64 64.8,-46.05 165.77,-246.13 237.54,-315.42l4.16 481.63 100.29 0.28 5.07 -697.37c-120.79,-1.75 -97.1,-5.85 -199.93,146.44 -48.02,71.11 -97.83,153.65 -144.13,209.25 -42.02,-28.24 -231.34,-299.12 -263.38,-355.12l-97.14 -1.03 1.25 696z"/>
   <path class="fil0" d="M7844.16 563.39c105.85,0.54 207.38,1.41 308.89,1.18 102.54,-0.24 217.63,-17.14 211.29,99.11 -5.72,105.18 -111.17,95.65 -211.28,95.97 -103.14,0.32 -206.29,2.3 -309.41,3l-1.86 398.09 101.93 -0.3 6.06 -295.76c123.45,-0.45 109.72,-11.26 260.83,160.47 80.73,91.73 81.93,151.37 268.91,133.64l-260.23 -293.43c295.37,-5.23 282.75,-258.34 208.66,-344.2 -84.49,-97.89 -433.91,-61.58 -585.31,-56.21l1.52 98.42z"/>
   <path class="fil0" d="M3144 564.45c105.75,-0.13 207.97,0.57 310.03,-0.11 98.7,-0.66 220.05,-16.21 210.57,99.2 -8.54,104.07 -108.75,96.17 -210.55,96.38 -103.52,0.22 -206.8,0.8 -310.32,-0.26l-0.78 400.87 109.6 -1.31 -2.51 -294.42c181.32,-6.08 106.51,0.75 262.75,159.42 169.94,172.57 120.96,132.23 274.28,137.96 -28.69,-46.34 -218.31,-255.71 -266.18,-276.37 52.99,-51.19 133.37,-5.35 211.48,-109.07 50.26,-66.74 48.91,-191.31 -5.38,-253.06 -88.79,-101 -422.14,-59.4 -583.37,-58.6l0.38 99.38z"/>
   <polygon class="fil0" points="5568.13,1159.71 5667.82,1161.03 5675.41,859.64 6086.86,856.21 6088.95,1160.84 6188.53,1158.47 6193.05,466.8 6090.51,463.54 6087.02,749.73 5674.51,754.42 5672.63,464.75 5568.25,465.09 "/>
   <polygon class="fil0" points="4774.58,568.12 5050.29,567.71 5053.12,1159.73 5160.69,1158.85 5165.14,574.51 5434.91,567.66 5436.13,460.62 4777.24,463.37 "/>
   <path class="fil0" d="M1645.05 1162.33l644.52 -1.9 2.37 -97.98 -485.06 -5.82 182.21 -208.59c-180.4,-3.76 -137.75,0.11 -228.33,103.9 -68.35,78.34 -134.1,70.57 -115.71,210.39z"/>
   <path class="fil0" d="M1646.44 562.68l474.04 2.84c-20.14,35.01 -44.15,59.21 -72.85,88.75 -29.4,30.26 -56.4,49.68 -81.98,80.29 143.82,3.03 121.07,27.79 255.3,-109.56 50.36,-51.51 75.86,-50.71 70.45,-157.5l-645.18 -2.79 0.24 97.97z"/>
   <polygon class="fil0" points="2413.64,861.17 2595.33,861.57 2654.97,861.65 2750.37,861.43 2821.93,861.42 3004.39,860.36 3004.93,756.46 2893.49,756.03 2413.12,757.95 "/>
   <polygon class="fil0" points="8582.41,859.22 9170.89,860.6 9170.5,756.31 8582.59,757.89 "/>
   <polygon class="fil0" points="6329.03,857.7 6519.12,861.94 6542.98,861.46 6914.21,859.46 6913.25,757.04 6327.5,757.87 "/>
   <polygon class="fil0" points="6330.22,1160.63 6919.69,1161.38 6922.99,1060.46 6329.77,1059.46 "/>
   <polygon class="fil0" points="8585.44,1160.82 9174.98,1161.81 9177.38,1059.88 8585.12,1060.55 "/>
   <path class="fil0" d="M2416.82 1161.49l586.92 -2.44 2.3 -93.97c-196.11,-12.38 -393.69,-6.53 -590.19,-5.21l0.97 101.62z"/>
   <polygon class="fil0" points="8585.5,562.41 9173.67,564.1 9177.9,464.95 8584.65,464.79 "/>
   <polygon class="fil0" points="6330.4,563.72 6917.42,563.92 6921.84,465.93 6329.87,464.66 "/>
   <polygon class="fil0" points="2417.68,564.07 3005.77,564.58 3007.66,468.02 2418.16,464.78 "/>
   <g>
    <path class="fil0" d="M302.87 1238.71l87.54 -257.17 -29.79 -26.74c-6.85,-6.46 -5.12,-3.49 -11.01,-11.06 -11.72,-15.05 -22.13,-29.4 -33.28,-45.82 -20.43,-30.08 -39.53,-71.57 -49.38,-111.72 -64.44,-262.8 125.24,-516.75 406.67,-529.84l1.55 -256.36c-169,7.54 -306.22,63.7 -407.15,145.01 -103.22,83.16 -186.65,190.46 -232.11,323.66 -53.1,155.57 -46.19,318.22 13.41,465.8 43.13,106.78 123.23,209.53 211.17,275.22 9.63,7.2 32.33,25.58 42.39,29.02z"/>
    <path class="fil0" d="M332.57 1263.66c27.3,8.99 119.3,81.07 149.6,106.64 24.78,20.92 69.12,69.19 89.1,97.22 10.55,14.8 46.02,73.25 51.62,93.7 -1.03,-65.5 -54.28,-170.47 -91.42,-221.36 -17.47,-23.94 -72.58,-89.37 -94.13,-98.22 3.28,-25.45 19.75,-64.39 28.36,-90.32 31.97,-96.28 201.53,-615.63 209.34,-623.13l2.22 557.05c-30.45,11.83 -55.09,25.23 -55.4,66.98 -0.35,48.22 42.78,57.19 54.72,66.27 2.14,49.12 -5.32,386.12 5.45,394 34.69,9.08 23.74,-50.11 23.61,-78.11 -0.16,-34.75 -0.2,-69.49 -0.35,-104.25 -0.27,-67.44 -4.11,-145.46 -0.17,-211.65 0.73,-0.5 1.9,-2.04 2.29,-1.37 0.39,0.67 1.74,-1.03 2.27,-1.32 11.98,-6.44 25.19,-11.15 33.18,-21.07 6.73,-8.36 16.59,-26.97 16.95,-43.04 0.77,-34.7 -25.85,-58.65 -54.73,-64.13l0.17 -559.32c10.82,11.61 27.98,72.94 32.54,87.31 22.74,71.6 202.13,599.61 205.31,625.05 -7.32,8.65 -7.34,7.61 -14.74,13.29l-47.01 47.7c-22.4,29.46 -32.2,36.78 -53.22,73.07 -24.95,43.07 -66.88,122.61 -68.1,182.26 9.81,-13.54 23.97,-53.8 52.33,-93.6 11.36,-15.95 21.64,-25.75 32.88,-39.79 29.31,-36.59 76.12,-73.5 115.22,-102.87 24.95,-18.75 66.61,-41.65 87.04,-61.09l-320.13 -945.9 -72.6 0.09c-13.42,27.51 -30.3,86.82 -39.89,117.95 -33,107.13 -83.65,247.77 -120.58,356.35l-120.9 353.03c-11.18,34.42 -35.77,89.57 -40.83,122.58z"/>
    <path class="fil0" d="M1127.88 664.59l252 0.56c10.04,-75.24 -36.09,-212.43 -64.3,-270.48 -45.5,-93.63 -96.58,-154.88 -160.09,-215.7l-70.82 -55.53c-32.86,-21.53 -66.49,-44.34 -106.02,-61.39 -61.81,-26.65 -193.49,-68.71 -270.05,-61.14 -3.25,30.07 0.08,180.43 -0.42,235.47 -0.14,16.06 -3.04,18.33 11.06,20.75 82.31,14.09 128.86,17.07 206.74,65.88 99.27,62.21 190.96,172.61 201.9,341.57z"/>
    <path class="fil0" d="M991.5 981.28l87.92 258.17c22.82,-13.01 98.94,-76.21 115.41,-95 31.46,-35.91 62.97,-71.48 91.88,-119.76 47.49,-79.32 101.93,-211.22 93.81,-325.18l-251.88 -0.82c-13.8,70.66 -3.88,84.9 -43.48,165.41 -24.05,48.89 -58,90.37 -93.66,117.2z"/>
   </g>
  </g>
 </g>
</svg>
