<?xml version="1.0" encoding="UTF-8"?>
<!DOCTYPE svg PUBLIC "-//W3C//DTD SVG 1.1//EN" "http://www.w3.org/Graphics/SVG/1.1/DTD/svg11.dtd">
<!-- Creator: CorelDRAW -->
<svg xmlns="http://www.w3.org/2000/svg" xml:space="preserve" width="8.7709in" height="1.41247in" version="1.1" style="shape-rendering:geometricPrecision; text-rendering:geometricPrecision; image-rendering:optimizeQuality; fill-rule:evenodd; clip-rule:evenodd"
viewBox="0 0 12182.75 1961.91"
 xmlns:xlink="http://www.w3.org/1999/xlink"
 xmlns:xodm="http://www.corel.com/coreldraw/odm/2003">
 <defs>
  <style type="text/css">
   <![CDATA[
    .str1 {stroke:#FEFEFE;stroke-width:38.59;stroke-miterlimit:2.61313}
    .str0 {stroke:#373435;stroke-width:9.65;stroke-miterlimit:2.61313}
    .fil0 {fill:#FEFEFE}
    .fil1 {fill:#020202}
   ]]>
  </style>
 </defs>
 <g id="Layer_x0020_1">
  <metadata id="CorelCorpID_0Corel-Layer"/>
  <g id="_2389794599456">
   <path class="fil0 str0" d="M5051.96 555.63c-570.27,117.49 -403.76,950.48 153.32,853.83 564.02,-97.84 421.06,-972.16 -153.32,-853.83zm22.31 134.67c-395.89,89.58 -273.65,667.47 135.2,576.14 127.71,-28.52 247.12,-184.14 208.32,-356.81 -29.44,-131.07 -168.29,-258.97 -343.51,-219.33z"/>
   <path class="fil0 str0" d="M8893.29 554.08c-589.28,110.14 -390.35,944.38 144.48,856.76 572.05,-93.71 421.2,-962.5 -144.48,-856.76zm-17.06 143.35c-339.97,108.05 -219.01,672.99 174.17,567.36 132.35,-35.58 245.2,-187.87 201.37,-360.78 -35.03,-138.18 -190.23,-265.46 -375.53,-206.57z"/>
   <path class="fil1 str1" d="M11308.08 1409.08l123.88 -2.27 2.47 -583c119.6,107 187.3,277.79 306.88,385.04 78.79,-55.99 201.57,-299.29 288.85,-383.55l5.05 585.65 121.95 0.34 6.17 -847.99c-146.88,-2.13 -118.07,-7.11 -243.11,178.07 -58.39,86.47 -118.96,186.84 -175.27,254.45 -51.1,-34.34 -281.3,-363.73 -320.27,-431.82l-118.12 -1.25 1.52 846.33z"/>
   <path class="fil1 str1" d="M9538.42 685.08c128.71,0.65 252.17,1.72 375.6,1.44 124.68,-0.29 264.64,-20.85 256.93,120.52 -6.96,127.9 -135.18,116.3 -256.92,116.7 -125.42,0.39 -250.85,2.79 -376.24,3.65l-2.26 484.08 123.94 -0.36 7.37 -359.64c150.12,-0.55 133.41,-13.69 317.17,195.13 98.16,111.54 99.62,184.06 326.99,162.5l-316.43 -356.81c359.17,-6.35 343.83,-314.14 253.73,-418.54 -102.74,-119.03 -527.63,-74.89 -711.74,-68.35l1.85 119.68z"/>
   <path class="fil1 str1" d="M3823.07 686.37c128.59,-0.15 252.89,0.69 376.99,-0.14 120.02,-0.8 267.58,-19.71 256.06,120.62 -10.38,126.55 -132.23,116.94 -256.02,117.2 -125.88,0.27 -251.47,0.97 -377.35,-0.31l-0.95 487.46 133.27 -1.6 -3.05 -358.01c220.48,-7.4 129.51,0.91 319.5,193.85 206.64,209.84 147.09,160.78 333.52,167.76 -34.89,-56.35 -265.46,-310.94 -323.67,-336.07 64.44,-62.25 162.18,-6.51 257.16,-132.63 61.12,-81.16 59.48,-232.63 -6.54,-307.72 -107.96,-122.81 -513.32,-72.23 -709.37,-71.25l0.46 120.84z"/>
   <polygon class="fil1 str1" points="6770.79,1410.2 6892.01,1411.81 6901.24,1045.32 7401.56,1041.14 7404.1,1411.57 7525.18,1408.69 7530.68,567.63 7405.99,563.66 7401.75,911.66 6900.15,917.37 6897.85,565.13 6770.93,565.54 "/>
   <polygon class="fil0 str0" points="5805.84,690.82 6141.1,690.33 6144.54,1410.21 6275.34,1409.15 6280.75,698.6 6608.79,690.27 6610.27,560.11 5809.07,563.45 "/>
   <path class="fil1 str1" d="M2000.36 1413.39l783.73 -2.31 2.88 -119.15 -589.83 -7.08 221.56 -253.65c-219.37,-4.57 -167.51,0.14 -277.64,126.34 -83.11,95.26 -163.06,85.82 -140.7,255.84z"/>
   <path class="fil1 str1" d="M2002.05 684.21l576.42 3.46c-24.49,42.57 -53.68,71.99 -88.59,107.92 -35.75,36.79 -68.59,60.41 -99.69,97.63 174.88,3.68 147.22,33.8 310.44,-133.23 61.24,-62.64 92.24,-61.66 85.66,-191.52l-784.54 -3.39 0.29 119.13z"/>
   <polygon class="fil1 str1" points="2934.96,1047.17 3155.89,1047.66 3228.41,1047.75 3344.43,1047.49 3431.44,1047.48 3653.31,1046.19 3653.96,919.85 3518.45,919.32 2934.33,921.66 "/>
   <polygon class="fil1 str1" points="10436.12,1044.8 11151.7,1046.48 11151.23,919.66 10436.34,921.58 "/>
   <polygon class="fil1 str1" points="7696.04,1042.96 7927.17,1048.11 7956.19,1047.53 8407.6,1045.1 8406.44,920.55 7694.17,921.57 "/>
   <polygon class="fil1 str1" points="7697.48,1411.31 8414.27,1412.22 8418.28,1289.51 7696.93,1288.29 "/>
   <polygon class="fil1 str1" points="10439.8,1411.55 11156.68,1412.75 11159.59,1288.81 10439.41,1289.61 "/>
   <path class="fil1 str1" d="M2938.83 1412.36l713.69 -2.96 2.79 -114.27c-238.47,-15.05 -478.72,-7.95 -717.66,-6.34l1.18 123.57z"/>
   <polygon class="fil1 str1" points="10439.87,683.88 11155.09,685.94 11160.23,565.37 10438.85,565.18 "/>
   <polygon class="fil1 str1" points="7697.7,685.48 8411.51,685.72 8416.89,566.57 7697.05,565.03 "/>
   <polygon class="fil1 str1" points="2939.88,685.91 3654.99,686.52 3657.28,569.11 2940.46,565.16 "/>
   <g>
    <path class="fil0" d="M368.29 1506.26l106.44 -312.72 -36.23 -32.52c-8.33,-7.85 -6.22,-4.24 -13.39,-13.45 -14.25,-18.3 -26.91,-35.75 -40.47,-55.71 -24.84,-36.57 -48.07,-87.03 -60.05,-135.85 -78.36,-319.56 152.29,-628.37 494.5,-644.28l1.89 -311.74c-205.51,9.17 -372.37,77.46 -495.1,176.33 -125.51,101.12 -226.96,231.6 -282.25,393.57 -64.57,189.17 -56.16,386.96 16.31,566.4 52.44,129.84 149.84,254.79 256.78,334.67 11.71,8.75 39.31,31.11 51.55,35.29z"/>
    <path class="fil0" d="M404.4 1536.6c33.2,10.93 145.07,98.58 181.91,129.67 30.13,25.44 84.05,84.13 108.34,118.22 12.83,18 55.96,89.08 62.77,113.94 -1.26,-79.64 -66,-207.29 -111.17,-269.18 -21.24,-29.11 -88.26,-108.67 -114.46,-119.43 3.99,-30.95 24.02,-78.3 34.48,-109.83 38.87,-117.07 245.05,-748.6 254.55,-757.73l2.7 677.37c-37.03,14.39 -66.99,30.68 -67.36,81.45 -0.42,58.64 52.02,69.54 66.54,80.58 2.6,59.73 -6.47,469.52 6.63,479.1 42.18,11.04 28.86,-60.94 28.7,-94.98 -0.2,-42.25 -0.25,-84.5 -0.43,-126.77 -0.33,-82.01 -5,-176.88 -0.2,-257.36 0.89,-0.61 2.31,-2.48 2.79,-1.66 0.47,0.81 2.12,-1.26 2.76,-1.61 14.57,-7.83 30.63,-13.56 40.35,-25.62 8.18,-10.16 20.17,-32.79 20.61,-52.34 0.94,-42.2 -31.43,-71.31 -66.56,-77.98l0.21 -680.13c13.16,14.11 34.02,88.7 39.56,106.17 27.65,87.07 245.79,729.11 249.65,760.05 -8.9,10.52 -8.92,9.25 -17.92,16.16l-57.16 58c-27.23,35.82 -39.15,44.72 -64.71,88.85 -30.34,52.37 -81.33,149.1 -82.81,221.62 11.93,-16.46 29.15,-65.43 63.63,-113.82 13.81,-19.39 26.31,-31.31 39.98,-48.38 35.64,-44.5 92.56,-89.37 140.11,-125.09 30.34,-22.8 80.99,-50.65 105.84,-74.28l-389.27 -1150.2 -88.28 0.11c-16.32,33.45 -36.85,105.57 -48.51,143.42 -40.13,130.26 -101.71,301.28 -146.62,433.32l-147.01 429.28c-13.59,41.86 -43.49,108.92 -49.65,149.05z"/>
    <path class="fil0" d="M1371.49 808.13l306.43 0.68c12.21,-91.49 -43.88,-258.32 -78.18,-328.9 -55.32,-113.85 -117.44,-188.33 -194.67,-262.29l-86.12 -67.52c-39.96,-26.18 -80.85,-53.92 -128.92,-74.64 -75.16,-32.41 -235.29,-83.55 -328.38,-74.34 -3.95,36.56 0.1,219.41 -0.51,286.33 -0.17,19.53 -3.7,22.3 13.45,25.23 100.08,17.14 156.69,20.76 251.4,80.11 120.72,75.65 232.21,209.89 245.51,415.35z"/>
    <path class="fil0" d="M1205.65 1193.22l106.91 313.93c27.75,-15.83 120.31,-92.67 140.34,-115.52 38.25,-43.67 76.57,-86.92 111.72,-145.63 57.75,-96.45 123.95,-256.84 114.07,-395.42l-306.28 -1c-16.78,85.93 -4.71,103.24 -52.87,201.14 -29.25,59.45 -70.52,109.88 -113.89,142.51z"/>
   </g>
  </g>
 </g>
</svg>
