<svg xmlns="http://www.w3.org/2000/svg" width="256" height="256" viewBox="0 0 24 24"><path fill="#f24e1e" d="M15.401 2.298a2.91 2.91 0 0 0-2.909 2.91v2.91h2.909a2.91 2.91 0 1 0 0-5.82z"/><path fill="#ff7262" d="M9.583 2.298a2.91 2.91 0 0 0-2.909 2.91v8.73h2.909a2.91 2.91 0 0 0 0-5.821h-2.909v-2.91a2.91 2.91 0 1 0 2.909-2.909z"/><path fill="#a259ff" d="M9.583 16.598a2.91 2.91 0 0 0-2.909 2.91v2.909a2.91 2.91 0 1 0 5.818 0v-2.909a2.91 2.91 0 0 0-2.909-2.91z"/><path fill="#1abcfe" d="M9.583 8.118H6.674a2.91 2.91 0 1 0 0 5.818h2.909a2.91 2.91 0 1 0 0-5.818z"/><path fill="#0acf83" d="M15.401 13.936a2.91 2.91 0 1 0-2.909 2.911a2.91 2.91 0 0 0 2.909-2.911z"/></svg>
