<svg xmlns="http://www.w3.org/2000/svg" width="256" height="256" viewBox="0 0 32 32"><path fill="#3d0303" d="M30 2H2a2 2 0 0 0-2 2v24a2 2 0 0 0 2 2h28a2 2 0 0 0 2-2V4a2 2 0 0 0-2-2z"/><path fill="#ff7c00" d="m15.352 23.352l-2.091-6.216h-2.887l-2.091 6.216H5.5L10.324 9h3.704l4.823 14.352zM10.12 15.6h3.111l-1.555-4.71zM23.11 23.352h-2.835V18.1c0-1.229-.206-2.905-.618-3.481c-.413-.576-1.12-1.002-2.128-1.002c-1.373 0-2.834.757-2.834 3.01v6.725h-2.798V12.72h2.798v1.196c.72-.927 1.834-1.517 3.128-1.517c1.72 0 3.33 1.121 3.778 3.01c.206.866.309 1.905.309 2.83V23.35z"/><path fill="#ff7c00" d="M25.071 9H22.1v2.971h2.971z"/></svg>
