<svg xmlns="http://www.w3.org/2000/svg" viewBox="0 0 256 256">
  <rect width="256" height="256" fill="#F7DF1E"/>
  <path d="M42.84 213.364c-1.428-.147-2.142-1.29-2.142-3.427V46.03c0-1.854.714-2.856 2.142-3.427L58.28 37.46c1.429-.572 2.143-.857 3.572-.857h136c1.428 0 2.142.285 3.571.857l15.429 5.143c1.428.571 2.142 1.573 2.142 3.427v163.907c0 2.138-.714 3.28-2.142 3.428l-15.429 4.857c-1.429.285-2.143.571-3.571.571h-136c-1.429 0-2.143-.286-3.572-.571l-15.428-4.857z"/>
  <path fill="#323330" d="M119.829 177.364c14.285 0 25.142-3.143 32.571-9.429 7.429-6.285 11.143-15.142 11.143-26.571 0-11.428-3.714-20.428-11.143-26.857-7.429-6.428-18.286-9.714-32.571-9.714-14.286 0-25.286 3.286-33.143 9.714-7.857 6.428-11.714 15.429-11.714 26.857 0 11.429 3.857 20.286 11.714 26.571 7.857 6.286 18.857 9.429 33.143 9.429zm-4.428-16.143c-6.286 0-11.429-1.857-15.429-5.571-4-3.715-6-9-6-15.857 0-6.857 2-12.143 6-15.857 4-3.715 9.143-5.572 15.429-5.572 6.285 0 11.285 1.857 15 5.572 3.714 3.714 5.571 9 5.571 15.857 0 6.857-1.857 12.143-5.571 15.857-3.715 3.714-8.715 5.571-15 5.571zM192.4 176.507c8.572 0 15-2.143 19.286-6.428 4.286-4.286 6.429-9.857 6.429-16.715V110.51h15.285v-12.429h-15.285V80.366h-16.572v17.715h-10.714v12.429h10.714v42.857c0 4.571-1.143 7.857-3.428 9.857-2.286 2-5.429 3-9.429 3-2.857 0-6.143-.429-9.857-1.286l-2.572 13.143c3.715 1.286 7.857 1.857 12.429 1.857z"/>
</svg>
