<svg xmlns="http://www.w3.org/2000/svg" width="2500" height="2500" viewBox="0 0 166 192"><path fill="#68a063" d="M83.2.3L0 48.2v95.8l83.2 47.7 83.2-47.7V48.2L83.2.3zm47.2 135.8l-12.8 7.4-34.4-19.8-34.4 19.8-12.8-7.4V56.4l12.8-7.4 34.4 19.8 34.4-19.8 12.8 7.4v79.7z"/><path fill="#68a063" d="M83.1 103.8c-2.3 0-4.6-.3-6.8-.9l-22.3-5.2-2.3 9.3 31.4 7.3c2.3.5 4.6.8 6.9.8 13.9 0 26.2-7.2 32.5-18.2-11.2 9.4-23.7 12-39.4 6.9zm-41-17.8l32.2-7.5c2.3-.5 4.6-.8 6.9-.8 13.8 0 26 7.2 32.4 18.2-11.3-9.4-23.7-12-39.3-6.9l-22.4 5.2-9.8-39.4zm41-11.2c-2.3 0-4.6.3-6.8.9l-22.3 5.2-2.3-9.3 31.4-7.3c2.3-.5 4.6-.8 6.9-.8 13.9 0 26.2-7.2 32.5-18.2-11.2 9.4-23.7 12-39.4 6.9z"/></svg>
