<svg xmlns="http://www.w3.org/2000/svg" width="256" height="256" viewBox="0 0 32 32"><path fill="#001833" d="M30 2H2a2 2 0 0 0-2 2v24a2 2 0 0 0 2 2h28a2 2 0 0 0 2-2V4a2 2 0 0 0-2-2z"/><path fill="#00a4e4" d="M11.66 23.364h2.915c1.782 0 4.19-1.277 4.19-4.227c0-2.31-1.382-3.69-3.32-3.69h-1.091v-2.31h2.772c1.455 0 3.463-1.076 3.463-3.23c0-1.858-1.164-2.864-2.847-2.864h-3.164V23.36zm2.7-14.717c.563 0 .74.37.74.88c0 .548-.176.898-.74.898h-1.61v-1.778h1.61zm0 5.48c.847 0 1.182.495 1.182 1.258c0 .782-.335 1.276-1.182 1.276H13.27v-2.534h1.09zM25.093 18.06c0-2.437-1.78-4.51-4.72-4.51s-4.72 2.073-4.72 4.51c0 2.457 1.78 4.51 4.72 4.51s4.72-2.053 4.72-4.51zm-6.88.02c0-1.166.72-2.11 2.16-2.11c1.44 0 2.16.944 2.16 2.11c0 1.146-.72 2.11-2.16 2.11c-1.44 0-2.16-.964-2.16-2.11z"/></svg>
