<svg width="128" height="128" viewBox="0 0 128 128" fill="none" xmlns="http://www.w3.org/2000/svg">
<rect width="128" height="128" rx="32" fill="#3178C6"/>
<path d="M96 97H81.04C80.08 101.92 75.82 104.98 71.02 104.98C65.38 104.98 61.3 101.44 61.3 96.1C61.3 90.7 65.02 87.52 72.1 82.9C79.84 77.86 82.72 75.46 82.72 71.5C82.72 68.62 80.32 66.88 77.02 66.88C73.42 66.88 70.72 68.74 69.52 71.44H55.48C56.62 63.64 64 57.88 77.08 57.88C88.54 57.88 96.64 63.52 96.64 71.2C96.64 77.44 91.9 81.4 84.16 86.62C77.26 91.12 75.34 93.16 75.34 96.16C75.34 98.68 77.38 100.36 80.08 100.36C82.96 100.36 84.82 98.86 85.6 97H96Z" fill="white"/>
<path d="M57.3453 58.2195H31V62.4795H42.1053V97H46.5158V62.4795H57.3453V58.2195Z" fill="white"/>
</svg>
